<svg width="24" height="24" viewBox="0 0 24 24" fill="none" xmlns="http://www.w3.org/2000/svg">
<path fill-rule="evenodd" clip-rule="evenodd" d="M14.2408 6.43413C13.5099 6.13986 12.7281 5.99245 11.9402 6.0003C11.1523 6.00815 10.3737 6.1711 9.6488 6.47987C8.92388 6.78863 8.26688 7.23716 7.71531 7.79983C7.16374 8.3625 6.72839 9.02831 6.43413 9.75923C6.13986 10.4901 5.99245 11.2719 6.0003 12.0598C6.00815 12.8477 6.1711 13.6263 6.47987 14.3512C6.78863 15.0761 7.23716 15.7331 7.79983 16.2847C8.3625 16.8363 9.02831 17.2716 9.75923 17.5659C10.4901 17.8601 11.2719 18.0076 12.0598 17.9997C12.8477 17.9919 13.6263 17.8289 14.3512 17.5201C15.0761 17.2114 15.7331 16.7628 16.2847 16.2002C16.8363 15.6375 17.2716 14.9717 17.5659 14.2408C17.8601 13.5098 18.0076 12.7281 17.9997 11.9402C17.9919 11.1523 17.8289 10.3737 17.5201 9.6488C17.2114 8.92388 16.7628 8.26688 16.2002 7.71531C15.6375 7.16374 14.9717 6.72839 14.2408 6.43413ZM11.9203 4.0004C12.9708 3.98993 14.0131 4.18649 14.9877 4.57884C15.9623 4.97119 16.85 5.55165 17.6002 6.28708C18.3505 7.02251 18.9485 7.89851 19.3602 8.86506C19.7719 9.83161 19.9891 10.8698 19.9996 11.9203C20.0101 12.9708 19.8135 14.0131 19.4212 14.9877C19.0288 15.9623 18.4484 16.85 17.7129 17.6002C16.9775 18.3505 16.1015 18.9485 15.1349 19.3602C14.1684 19.7719 13.1302 19.9891 12.0797 19.9996C11.0292 20.0101 9.98687 19.8135 9.01231 19.4212C8.03774 19.0288 7.15001 18.4484 6.39977 17.7129C5.64954 16.9775 5.05151 16.1015 4.63983 15.1349C4.22814 14.1684 4.01086 13.1302 4.0004 12.0797C3.98993 11.0292 4.18649 9.98687 4.57884 9.01231C4.97119 8.03774 5.55165 7.15 6.28708 6.39977C7.02251 5.64954 7.89851 5.05151 8.86506 4.63983C9.83162 4.22814 10.8698 4.01086 11.9203 4.0004Z" fill="white"/>
<path fill-rule="evenodd" clip-rule="evenodd" d="M11.4437 12.831C11.1664 12.6453 11 12.3337 11 12L11 8.02203C11 7.46975 11.4477 7.02203 12 7.02203C12.5523 7.02203 13 7.46975 13 8.02203L13 11.4661L15.5431 13.1686C16.002 13.4759 16.125 14.097 15.8177 14.5559C15.5105 15.0148 14.8894 15.1378 14.4304 14.8306L11.4437 12.831Z" fill="white"/>
</svg>
