<svg width="24" height="24" viewBox="0 0 24 24" fill="none" xmlns="http://www.w3.org/2000/svg">
<path fill-rule="evenodd" clip-rule="evenodd" d="M14.4275 5.9703C13.6357 5.65152 12.7888 5.49182 11.9353 5.50032C11.0817 5.50882 10.2382 5.68536 9.45286 6.01986C8.66754 6.35435 7.95579 6.84025 7.35825 7.44982C6.76071 8.05938 6.28909 8.78067 5.9703 9.5725C5.65152 10.3643 5.49182 11.2112 5.50032 12.0647C5.50882 12.9183 5.68536 13.7618 6.01986 14.5471C6.35435 15.3325 6.84025 16.0442 7.44982 16.6417C8.05938 17.2393 8.78067 17.7109 9.5725 18.0297C10.3643 18.3485 11.2112 18.5082 12.0647 18.4997C12.9183 18.4912 13.7618 18.3146 14.5471 17.9801C15.3325 17.6456 16.0442 17.1597 16.6417 16.5502C17.2393 15.9406 17.7109 15.2193 18.0297 14.4275C18.3485 13.6357 18.5082 12.7888 18.4997 11.9353C18.4912 11.0817 18.3146 10.2382 17.9801 9.45286C17.6456 8.66754 17.1597 7.95579 16.5502 7.35825C15.9406 6.76071 15.2193 6.28909 14.4275 5.9703ZM11.9203 4.0004C12.9708 3.98993 14.0131 4.18649 14.9877 4.57884C15.9623 4.97119 16.85 5.55165 17.6002 6.28708C18.3505 7.02251 18.9485 7.89851 19.3602 8.86506C19.7719 9.83161 19.9891 10.8698 19.9996 11.9203C20.0101 12.9708 19.8135 14.0131 19.4212 14.9877C19.0288 15.9623 18.4484 16.85 17.7129 17.6002C16.9775 18.3505 16.1015 18.9485 15.1349 19.3602C14.1684 19.7719 13.1302 19.9891 12.0797 19.9996C11.0292 20.0101 9.98687 19.8135 9.01231 19.4212C8.03774 19.0288 7.15001 18.4484 6.39977 17.7129C5.64954 16.9775 5.05151 16.1015 4.63983 15.1349C4.22814 14.1684 4.01086 13.1302 4.0004 12.0797C3.98993 11.0292 4.18649 9.98687 4.57884 9.01231C4.97119 8.03774 5.55165 7.15 6.28708 6.39977C7.02251 5.64954 7.89851 5.05151 8.86506 4.63983C9.83162 4.22814 10.8698 4.01086 11.9203 4.0004Z" fill="white"/>
<path fill-rule="evenodd" clip-rule="evenodd" d="M11.5828 12.6233C11.3748 12.484 11.25 12.2503 11.25 12L11.25 8.02206C11.25 7.60785 11.5858 7.27206 12 7.27206C12.4142 7.27206 12.75 7.60785 12.75 8.02206L12.75 11.5996L15.404 13.3764C15.7482 13.6068 15.8404 14.0727 15.61 14.4169C15.3796 14.7611 14.9137 14.8533 14.5695 14.6228L11.5828 12.6233Z" fill="white"/>
</svg>
