<svg width="24" height="24" viewBox="0 0 24 24" fill="none" xmlns="http://www.w3.org/2000/svg">
<path d="M18.4402 9.25693C18.8004 10.1027 18.9905 11.0111 18.9997 11.9303C19.0088 12.8495 18.8368 13.7615 18.4935 14.6142C18.1502 15.467 17.6423 16.2437 16.9988 16.9002C16.3553 17.5567 15.5888 18.0799 14.7431 18.4402C13.8973 18.8004 12.9889 18.9905 12.0697 18.9997C11.1505 19.0088 10.2385 18.8368 9.38577 18.4935C8.53303 18.1502 7.75625 17.6423 7.0998 16.9988C6.44335 16.3553 5.92007 15.5888 5.55985 14.7431C5.19962 13.8973 5.0095 12.9889 5.00035 12.0697C4.99119 11.1505 5.16318 10.2385 5.50648 9.38577C5.84979 8.53303 6.35769 7.75625 7.00119 7.0998C7.6447 6.44335 8.4112 5.92007 9.25693 5.55985C10.1027 5.19962 11.0111 5.0095 11.9303 5.00035C12.8495 4.99119 13.7615 5.16318 14.6142 5.50648C15.467 5.84979 16.2437 6.35769 16.9002 7.00119C17.5567 7.6447 18.0799 8.4112 18.4402 9.25693L18.4402 9.25693Z" stroke="white" stroke-width="2"/>
<path d="M12 8.02202L12 12L14.9868 13.9996" stroke="white" stroke-width="2" stroke-linecap="round" stroke-linejoin="round"/>
</svg>
