<svg width="24" height="24" viewBox="0 0 24 24" fill="none" xmlns="http://www.w3.org/2000/svg">
    <path fill-rule="evenodd" clip-rule="evenodd" d="M12.7861 10.1604C12.5448 10.0572 12.2791 10 12 10C10.8954 10 10 10.8954 10 12C10 12.081 10.0048 12.1609 10.0142 12.2394L12.7861 10.1604ZM11.2139 13.8396C11.4552 13.9428 11.7209 14 12 14C13.1046 14 14 13.1046 14 12C14 11.919 13.9952 11.8391 13.9858 11.7606L11.2139 13.8396Z" fill="#666666"/>
    <path fill-rule="evenodd" clip-rule="evenodd" d="M15.6102 8.04238C15.3481 7.89496 15.0778 7.75793 14.8002 7.63487C13.9287 7.24857 12.9851 7 12 7C7.58172 7 4 12 4 12C4 12 5.02426 13.4298 6.65297 14.7603L7.47895 14.1408C7.31364 14.0109 7.15274 13.8779 6.99668 13.7431C6.31864 13.1577 5.76722 12.5696 5.38551 12.1276C5.3474 12.0835 5.31105 12.0409 5.27649 12C5.31105 11.9591 5.3474 11.9165 5.38551 11.8724C5.76722 11.4304 6.31864 10.8423 6.99668 10.2569C8.38378 9.05924 10.153 8 12 8C12.8158 8 13.6207 8.20588 14.395 8.54909C14.5065 8.59854 14.6171 8.65066 14.7264 8.70517L15.6102 8.04238ZM9.27356 15.2948C10.1352 15.7242 11.0575 16 12 16C13.847 16 15.6162 14.9408 17.0033 13.7431C17.6814 13.1577 18.2328 12.5696 18.6145 12.1276C18.6526 12.0835 18.689 12.0409 18.7235 12L18.6843 11.9538C18.3476 11.5584 17.8588 11.0254 17.2532 10.4778C17.0231 10.2697 16.7784 10.0615 16.521 9.85922L17.347 9.23973C17.5489 9.40463 17.7415 9.57105 17.924 9.73609C19.2139 10.9026 20 12 20 12C20 12 16.4183 17 12 17C10.7011 17 9.47442 16.5678 8.38984 15.9576L9.27356 15.2948Z" fill="#666666"/>
    <path d="M4 18L20 6" stroke="#666666"/>
</svg>
