<svg width="24" height="24" viewBox="0 0 24 24" fill="none" xmlns="http://www.w3.org/2000/svg">
<path fill-rule="evenodd" clip-rule="evenodd" d="M6.16596 5.81286C6.45885 5.51997 6.93373 5.51997 7.22662 5.81286L17.4797 16.0659C17.7726 16.3588 17.7726 16.8337 17.4797 17.1266C17.1868 17.4195 16.7119 17.4195 16.419 17.1266L6.16596 6.87352C5.87307 6.58063 5.87307 6.10576 6.16596 5.81286Z" fill="white"/>
<path fill-rule="evenodd" clip-rule="evenodd" d="M6.52056 17.1265C6.22767 16.8336 6.22767 16.3588 6.52056 16.0659L16.7736 5.81281C17.0665 5.51992 17.5414 5.51992 17.8343 5.81281C18.1272 6.10571 18.1272 6.58058 17.8343 6.87347L7.58122 17.1265C7.28833 17.4194 6.81346 17.4194 6.52056 17.1265Z" fill="white"/>
</svg>
