<svg width="24" height="24" viewBox="0 0 24 24" fill="none" xmlns="http://www.w3.org/2000/svg">
<path fill-rule="evenodd" clip-rule="evenodd" d="M6.3427 5.63606C6.73322 5.24554 7.36639 5.24554 7.75691 5.63606L17.6564 15.5356C18.0469 15.9261 18.0469 16.5592 17.6564 16.9498C17.2659 17.3403 16.6327 17.3403 16.2422 16.9498L6.3427 7.05028C5.95217 6.65975 5.95217 6.02659 6.3427 5.63606Z" fill="white"/>
<path fill-rule="evenodd" clip-rule="evenodd" d="M6.34383 16.9497C5.9533 16.5592 5.9533 15.926 6.34383 15.5355L16.2433 5.63601C16.6338 5.24549 17.267 5.24549 17.6575 5.63601C18.0481 6.02654 18.0481 6.6597 17.6575 7.05023L7.75804 16.9497C7.36751 17.3402 6.73435 17.3402 6.34383 16.9497Z" fill="white"/>
</svg>
