<svg width="24" height="24" viewBox="0 0 24 24" fill="none" xmlns="http://www.w3.org/2000/svg">
<path fill-rule="evenodd" clip-rule="evenodd" d="M5.69702 4.71278C6.2229 4.17945 6.93317 4 7.63636 4H9.83754L9.83835 5L9.83834 6H7.63636C7.24865 6 7.14074 6.09714 7.12116 6.117C7.09902 6.13946 7 6.25701 7 6.65957V16.3404C7 16.743 7.09902 16.8605 7.12116 16.883C7.14074 16.9029 7.24865 17 7.63636 17H14.1818C14.5695 17 14.6774 16.9029 14.697 16.883C14.7192 16.8605 14.8182 16.743 14.8182 16.3404V14.1285C14.8182 13.5762 15.2659 13.1277 15.8182 13.1277C16.3705 13.1277 16.8182 13.5754 16.8182 14.1277V16.3404C16.8182 17.0442 16.6445 17.7565 16.1212 18.2872C15.5953 18.8205 14.885 19 14.1818 19H7.63636C6.93317 19 6.2229 18.8205 5.69702 18.2872C5.17371 17.7565 5 17.0442 5 16.3404V6.65957C5 5.95575 5.17371 5.24352 5.69702 4.71278ZM10.8383 5C10.8383 5.55228 10.3906 6 9.83834 6L9.83835 5L9.83754 4C10.3898 4 10.8383 4.44772 10.8383 5ZM15.1061 4.29789C15.294 4.1073 15.5505 4 15.8182 4C16.2092 4 16.5948 4.16846 16.8546 4.30508C17.1563 4.4637 17.4755 4.68105 17.7697 4.93678C18.3007 5.39843 19 6.20662 19 7.21277C19 7.47554 18.8966 7.72776 18.7121 7.91488L14.8939 11.7872C14.8181 11.8641 14.7304 11.9282 14.6341 11.977L11.3614 13.6366C11.0254 13.8069 10.6221 13.774 10.3182 13.5514C10.0143 13.3288 9.86124 12.9543 9.92233 12.5825L10.4678 9.26338C10.5013 9.05932 10.5973 8.87068 10.7425 8.72343L15.1061 4.29789ZM16.0758 6.16296L12.3898 9.90133L12.2156 10.9609L13.5842 10.2669L16.8825 6.92184C16.7858 6.76933 16.6388 6.60376 16.4576 6.44619C16.3299 6.33522 16.1979 6.2392 16.0758 6.16296Z" fill="white"/>
</svg>
