<svg width="24" height="24" viewBox="0 0 24 24" fill="none" xmlns="http://www.w3.org/2000/svg">
<path fill-rule="evenodd" clip-rule="evenodd" d="M5.87504 4.88831C6.33763 4.41916 6.97261 4.25 7.63636 4.25H9.83754L9.83835 5L9.83834 5.75H7.63636C7.20921 5.75 7.02601 5.85743 6.94314 5.94148C6.85835 6.02747 6.75 6.21935 6.75 6.65957V16.3404C6.75 16.7806 6.85835 16.9725 6.94314 17.0585C7.02601 17.1426 7.20921 17.25 7.63636 17.25H14.1818C14.609 17.25 14.7922 17.1426 14.875 17.0585C14.9598 16.9725 15.0682 16.7806 15.0682 16.3404V14.1285C15.0682 13.7143 15.404 13.3777 15.8182 13.3777C16.2324 13.3777 16.5682 13.7135 16.5682 14.1277V16.3404C16.5682 17.0066 16.4038 17.6445 15.9431 18.1117C15.4806 18.5808 14.8456 18.75 14.1818 18.75H7.63636C6.97261 18.75 6.33763 18.5808 5.87504 18.1117C5.41437 17.6445 5.25 17.0066 5.25 16.3404V6.65957C5.25 5.99341 5.41437 5.35551 5.87504 4.88831ZM10.5883 5C10.5883 5.41421 10.2525 5.75 9.83834 5.75L9.83835 5L9.83754 4.25C10.2518 4.25 10.5883 4.58579 10.5883 5ZM15.2841 4.47342C15.4251 4.33047 15.6174 4.25 15.8182 4.25C16.1456 4.25 16.4859 4.39363 16.7383 4.52635C17.022 4.67557 17.3254 4.8818 17.6057 5.12546C18.1233 5.57541 18.75 6.31986 18.75 7.21277C18.75 7.40985 18.6724 7.59901 18.5341 7.73935L14.7159 11.6117C14.659 11.6693 14.5932 11.7174 14.521 11.754L11.2483 13.4136C10.9963 13.5414 10.6939 13.5167 10.4659 13.3497C10.238 13.1828 10.1232 12.9019 10.169 12.6231L10.7145 9.30392C10.7396 9.15088 10.8116 9.00939 10.9205 8.89896L15.2841 4.47342ZM16.0331 5.85027L12.156 9.78238L11.889 11.4069L13.7336 10.4715L17.1895 6.9666C17.1024 6.7659 16.9188 6.51585 16.6216 6.25752C16.4246 6.08628 16.2166 5.94677 16.0401 5.85397C16.0378 5.85272 16.0354 5.85149 16.0331 5.85027Z" fill="white"/>
</svg>
