<svg width="24" height="24" viewBox="0 0 24 24" fill="none" xmlns="http://www.w3.org/2000/svg">
<path fill-rule="evenodd" clip-rule="evenodd" d="M12 3.38936L9.99291 7.4562C9.66517 8.12028 9.03165 8.58056 8.2988 8.68705L3.81078 9.33919L7.05835 12.5048C7.58864 13.0217 7.83062 13.7664 7.70544 14.4963L6.93879 18.9662L10.953 16.8558C11.6085 16.5112 12.3916 16.5112 13.047 16.8558L17.0612 18.9662L16.2946 14.4963C16.1694 13.7664 16.4114 13.0217 16.9417 12.5048L20.1893 9.33919L15.7012 8.68705C14.9684 8.58056 14.3349 8.12027 14.0071 7.4562L12 3.38936ZM12.6726 1.36278C12.3975 0.805343 11.6026 0.805344 11.3275 1.36278L8.64781 6.79235C8.53856 7.01371 8.32739 7.16714 8.08311 7.20264L2.09121 8.07331C1.47605 8.1627 1.23042 8.91868 1.67555 9.35258L6.01133 13.5789C6.18809 13.7512 6.26875 13.9995 6.22703 14.2428L5.20349 20.2104C5.0984 20.8231 5.74148 21.2903 6.2917 21.0011L11.651 18.1835C11.8695 18.0687 12.1305 18.0687 12.349 18.1835L17.7083 21.0011C18.2586 21.2903 18.9016 20.8231 18.7965 20.2104L17.773 14.2428C17.7313 13.9995 17.8119 13.7512 17.9887 13.5789L22.3245 9.35258C22.7696 8.91868 22.524 8.1627 21.9088 8.07331L15.9169 7.20263C15.6726 7.16714 15.4615 7.01371 15.3522 6.79235L12.6726 1.36278Z" fill="white"/>
</svg>
