<svg width="24" height="24" viewBox="0 0 24 24" fill="none" xmlns="http://www.w3.org/2000/svg">
<path d="M11.3275 1.36278C11.6026 0.805344 12.3975 0.805343 12.6726 1.36278L15.3522 6.79235C15.4615 7.01371 15.6726 7.16714 15.9169 7.20263L21.9088 8.07331C22.524 8.1627 22.7696 8.91868 22.3245 9.35258L17.9887 13.5789C17.8119 13.7512 17.7313 13.9995 17.773 14.2428L18.7965 20.2104C18.9016 20.8231 18.2586 21.2903 17.7083 21.0011L12.349 18.1835C12.1305 18.0687 11.8695 18.0687 11.651 18.1835L6.2917 21.0011C5.74148 21.2903 5.0984 20.8231 5.20349 20.2104L6.22703 14.2428C6.26875 13.9995 6.18809 13.7512 6.01133 13.5789L1.67555 9.35258C1.23042 8.91868 1.47605 8.1627 2.09121 8.07331L8.08311 7.20264C8.32739 7.16714 8.53856 7.01371 8.64781 6.79235L11.3275 1.36278Z" fill="white"/>
</svg>
