<svg width="24" height="24" viewBox="0 0 24 24" fill="none" xmlns="http://www.w3.org/2000/svg">
<circle cx="12" cy="12" r="2" fill="#666666"/>
<path d="M5.00709 12.4544C4.85309 12.2761 4.72646 12.1215 4.62977 12C4.72646 11.8785 4.85309 11.7239 5.00709 11.5456C5.40036 11.0902 5.96897 10.4837 6.66991 9.87845C8.08732 8.65462 9.97193 7.5 12 7.5C14.0281 7.5 15.9127 8.65462 17.3301 9.87845C18.031 10.4837 18.5996 11.0902 18.9929 11.5456C19.1469 11.7239 19.2735 11.8785 19.3702 12C19.2735 12.1215 19.1469 12.2761 18.9929 12.4544C18.5996 12.9098 18.031 13.5163 17.3301 14.1215C15.9127 15.3454 14.0281 16.5 12 16.5C9.97193 16.5 8.08732 15.3454 6.66991 14.1215C5.96897 13.5163 5.40036 12.9098 5.00709 12.4544Z" stroke="#666666"/>
</svg>
