<svg width="300" height="150" viewBox="0 0 300 150" fill="none" xmlns="http://www.w3.org/2000/svg">
<path fill-rule="evenodd" clip-rule="evenodd" d="M120.172 18.776C121.088 18.5948 122.034 18.5 123 18.5H125.5V21.5H123C122.23 21.5 121.479 21.5755 120.754 21.7189L120.172 18.776ZM130.5 18.5H133V21.5H130.5V18.5ZM166 18.5H168.75V21.5H166V18.5ZM174.25 18.5H177C177.966 18.5 178.912 18.5948 179.828 18.776L179.246 21.7189C178.521 21.5755 177.77 21.5 177 21.5H174.25V18.5ZM110.943 24.9425C112.001 23.3619 113.362 22.0014 114.943 20.9432L116.611 23.4361C115.357 24.2761 114.276 25.3567 113.436 26.6115L110.943 24.9425ZM185.057 20.9432C186.638 22.0014 187.999 23.3619 189.057 24.9425L186.564 26.6115C185.724 25.3567 184.643 24.2761 183.389 23.4361L185.057 20.9432ZM108.5 33C108.5 32.0335 108.595 31.0877 108.776 30.1718L111.719 30.754C111.575 31.4792 111.5 32.23 111.5 33V35.9643H108.5V33ZM191.224 30.1718C191.405 31.0877 191.5 32.0335 191.5 33V35.9643H188.5V33C188.5 32.23 188.425 31.4792 188.281 30.754L191.224 30.1718ZM108.5 47.8214V41.8929H111.5V47.8214H108.5ZM191.5 41.8929V47.8214H188.5V41.8929H191.5ZM108.5 59.6786V53.75H111.5V59.6786H108.5ZM191.5 53.75V59.6786H188.5V53.75H191.5ZM108.5 71.5357V65.6071H111.5V71.5357H108.5ZM191.5 65.6071V71.5357H188.5V65.6071H191.5ZM108.5 83.3929V77.4643H111.5V83.3929H108.5ZM191.5 77.4643V83.3929H188.5V77.4643H191.5ZM108.5 95.25V89.3214H111.5V95.25H108.5ZM191.5 89.3214V95.25H188.5V89.3214H191.5ZM108.5 107.107V101.179H111.5V107.107H108.5ZM191.5 101.179V107.107H188.5V101.179H191.5ZM108.5 116V113.036H111.5V116C111.5 116.77 111.575 117.521 111.719 118.246L108.776 118.828C108.595 117.912 108.5 116.966 108.5 116ZM191.5 113.036V116C191.5 116.966 191.405 117.912 191.224 118.828L188.281 118.246C188.425 117.521 188.5 116.77 188.5 116V113.036H191.5ZM114.943 128.057C113.362 126.999 112.001 125.638 110.943 124.057L113.436 122.389C114.276 123.643 115.357 124.724 116.611 125.564L114.943 128.057ZM189.057 124.057C187.999 125.638 186.638 126.999 185.057 128.057L183.389 125.564C184.643 124.724 185.724 123.643 186.564 122.389L189.057 124.057ZM123 130.5C122.034 130.5 121.088 130.405 120.172 130.224L120.754 127.281C121.479 127.425 122.23 127.5 123 127.5H125.7V130.5H123ZM179.828 130.224C178.912 130.405 177.966 130.5 177 130.5H174.3V127.5H177C177.77 127.5 178.521 127.425 179.246 127.281L179.828 130.224ZM136.5 130.5H131.1V127.5H136.5V130.5ZM147.3 130.5H141.9V127.5H147.3V130.5ZM158.1 130.5H152.7V127.5H158.1V130.5ZM168.9 130.5H163.5V127.5H168.9V130.5Z" fill="#666666"/>
<path fill-rule="evenodd" clip-rule="evenodd" d="M122.5 66C122.5 65.1716 123.172 64.5 124 64.5H127.583C128.412 64.5 129.083 65.1716 129.083 66C129.083 66.8284 128.412 67.5 127.583 67.5H124C123.172 67.5 122.5 66.8284 122.5 66ZM133.25 66C133.25 65.1716 133.922 64.5 134.75 64.5H141.917C142.745 64.5 143.417 65.1716 143.417 66C143.417 66.8284 142.745 67.5 141.917 67.5H134.75C133.922 67.5 133.25 66.8284 133.25 66ZM147.583 66C147.583 65.1716 148.255 64.5 149.083 64.5H156.25C157.078 64.5 157.75 65.1716 157.75 66C157.75 66.8284 157.078 67.5 156.25 67.5H149.083C148.255 67.5 147.583 66.8284 147.583 66ZM161.917 66C161.917 65.1716 162.588 64.5 163.417 64.5H167C167.828 64.5 168.5 65.1716 168.5 66C168.5 66.8284 167.828 67.5 167 67.5H163.417C162.588 67.5 161.917 66.8284 161.917 66Z" fill="#666666"/>
<path fill-rule="evenodd" clip-rule="evenodd" d="M122.5 102C122.5 101.172 123.172 100.5 124 100.5H127.583C128.412 100.5 129.083 101.172 129.083 102C129.083 102.828 128.412 103.5 127.583 103.5H124C123.172 103.5 122.5 102.828 122.5 102ZM133.25 102C133.25 101.172 133.922 100.5 134.75 100.5H141.917C142.745 100.5 143.417 101.172 143.417 102C143.417 102.828 142.745 103.5 141.917 103.5H134.75C133.922 103.5 133.25 102.828 133.25 102ZM147.583 102C147.583 101.172 148.255 100.5 149.083 100.5H156.25C157.078 100.5 157.75 101.172 157.75 102C157.75 102.828 157.078 103.5 156.25 103.5H149.083C148.255 103.5 147.583 102.828 147.583 102ZM161.917 102C161.917 101.172 162.588 100.5 163.417 100.5H167C167.828 100.5 168.5 101.172 168.5 102C168.5 102.828 167.828 103.5 167 103.5H163.417C162.588 103.5 161.917 102.828 161.917 102Z" fill="#666666"/>
<path fill-rule="evenodd" clip-rule="evenodd" d="M122.5 48C122.5 47.1716 123.172 46.5 124 46.5H128.25C129.078 46.5 129.75 47.1716 129.75 48C129.75 48.8284 129.078 49.5 128.25 49.5H124C123.172 49.5 122.5 48.8284 122.5 48ZM135.25 48C135.25 47.1716 135.922 46.5 136.75 46.5H145.25C146.078 46.5 146.75 47.1716 146.75 48C146.75 48.8284 146.078 49.5 145.25 49.5H136.75C135.922 49.5 135.25 48.8284 135.25 48ZM152.25 48C152.25 47.1716 152.922 46.5 153.75 46.5H162.25C163.078 46.5 163.75 47.1716 163.75 48C163.75 48.8284 163.078 49.5 162.25 49.5H153.75C152.922 49.5 152.25 48.8284 152.25 48ZM169.25 48C169.25 47.1716 169.922 46.5 170.75 46.5H175C175.828 46.5 176.5 47.1716 176.5 48C176.5 48.8284 175.828 49.5 175 49.5H170.75C169.922 49.5 169.25 48.8284 169.25 48Z" fill="#666666"/>
<path fill-rule="evenodd" clip-rule="evenodd" d="M122.5 84C122.5 83.1716 123.172 82.5 124 82.5H128.25C129.078 82.5 129.75 83.1716 129.75 84C129.75 84.8284 129.078 85.5 128.25 85.5H124C123.172 85.5 122.5 84.8284 122.5 84ZM135.25 84C135.25 83.1716 135.922 82.5 136.75 82.5H145.25C146.078 82.5 146.75 83.1716 146.75 84C146.75 84.8284 146.078 85.5 145.25 85.5H136.75C135.922 85.5 135.25 84.8284 135.25 84ZM152.25 84C152.25 83.1716 152.922 82.5 153.75 82.5H162.25C163.078 82.5 163.75 83.1716 163.75 84C163.75 84.8284 163.078 85.5 162.25 85.5H153.75C152.922 85.5 152.25 84.8284 152.25 84ZM169.25 84C169.25 83.1716 169.922 82.5 170.75 82.5H175C175.828 82.5 176.5 83.1716 176.5 84C176.5 84.8284 175.828 85.5 175 85.5H170.75C169.922 85.5 169.25 84.8284 169.25 84Z" fill="#666666"/>
<path fill-rule="evenodd" clip-rule="evenodd" d="M136.32 32.4688L137.47 29.6977C137.937 29.8915 138.452 30 139 30H141.625V33H139C138.051 33 137.146 32.8111 136.32 32.4688ZM157.375 33V30H160C160.548 30 161.063 29.8915 161.53 29.6977L162.68 32.4688C161.854 32.8111 160.949 33 160 33H157.375ZM167 21.5H164V20C164 19.4521 163.892 18.9371 163.698 18.4696L166.469 17.3205C166.811 18.1458 167 19.0509 167 20V21.5ZM141.625 13H139C138.051 13 137.146 13.1889 136.32 13.5312L137.47 16.3023C137.937 16.1085 138.452 16 139 16H141.625V13ZM132 24.5H135V26C135 26.5479 135.108 27.0629 135.302 27.5304L132.531 28.6795C132.189 27.8542 132 26.9491 132 26V24.5ZM132 21.5H135V20C135 19.4521 135.108 18.9371 135.302 18.4696L132.531 17.3205C132.189 18.1458 132 19.0509 132 20V21.5ZM146.875 13V16H152.125V13H146.875ZM157.375 13V16H160C160.548 16 161.063 16.1085 161.53 16.3023L162.68 13.5312C161.854 13.1889 160.949 13 160 13H157.375ZM167 24.5H164V26C164 26.5479 163.892 27.0629 163.698 27.5304L166.469 28.6795C166.811 27.8542 167 26.9491 167 26V24.5ZM152.125 33V30H146.875V33H152.125Z" fill="#666666"/>
</svg>
