<svg width="300" height="150" viewBox="0 0 300 150" fill="none" xmlns="http://www.w3.org/2000/svg">
<path fill-rule="evenodd" clip-rule="evenodd" d="M142.43 96.8115C158.563 96.8115 171.641 83.733 171.641 67.5998C171.641 51.4666 158.563 38.3881 142.43 38.3881C126.296 38.3881 113.218 51.4666 113.218 67.5998C113.218 83.733 126.296 96.8115 142.43 96.8115ZM142.43 99.8115C160.22 99.8115 174.641 85.3899 174.641 67.5998C174.641 49.8097 160.22 35.3881 142.43 35.3881C124.639 35.3881 110.218 49.8097 110.218 67.5998C110.218 85.3899 124.639 99.8115 142.43 99.8115Z" fill="#666666"/>
<path fill-rule="evenodd" clip-rule="evenodd" d="M194.196 120.199L164.562 90.5644L166.683 88.4431L196.318 118.078L194.196 120.199Z" fill="#666666"/>
<path d="M66.9868 83.0614L75.5548 88.792L69.8242 97.36L61.2562 91.6294L66.9868 83.0614Z" fill="#666666"/>
<path d="M217.251 26.2677L219.764 32.801L213.231 35.3135L210.718 28.7802L217.251 26.2677Z" fill="#666666"/>
<path d="M260.537 78L267.061 80.5372L264.524 87.0609L258 84.5237L260.537 78Z" fill="#666666"/>
<path d="M206.99 81.7729L217.199 83.1979L215.774 93.4067L205.565 91.9817L206.99 81.7729Z" fill="#666666"/>
<path d="M84.4487 31.0743L92.2118 29.4359L93.8502 37.1989L86.0872 38.8374L84.4487 31.0743Z" fill="#666666"/>
<path d="M22.7842 56.1659L29.2355 60.7843L24.617 67.2356L18.1657 62.6172L22.7842 56.1659Z" fill="#666666"/>
<path d="M143.25 6L151.82 11.7277L146.092 20.2976L137.522 14.5699L143.25 6Z" fill="#666666"/>
<path d="M130.508 120.994L134.173 129.11L126.056 132.775L122.391 124.658L130.508 120.994Z" fill="#666666"/>
<path fill-rule="evenodd" clip-rule="evenodd" d="M153.862 61.6075L153.583 62.5678L152.655 62.2981L152.664 62.2658L152.632 62.2564L152.902 61.3284L153.862 61.6075ZM139.975 57.5711L139.015 57.292L138.736 58.2522L139.663 58.5219L139.673 58.4896L139.705 58.499L139.975 57.5711ZM134.978 71.1788L134.699 72.1391L135.659 72.4182L135.929 71.4903L135.897 71.4809L135.906 71.4486L134.978 71.1788ZM148.586 76.1756L149.546 76.4547L149.825 75.4944L148.897 75.2247L148.888 75.257L148.856 75.2476L148.586 76.1756ZM153.053 64.3914L152.092 64.1123L151.553 65.9682L152.513 66.2473L153.053 64.3914ZM151.974 68.1032L151.013 67.8241L150.474 69.6799L151.434 69.9591L151.974 68.1032ZM150.895 71.815L149.935 71.5358L149.395 73.3917L150.355 73.6709L150.895 71.815ZM146.762 75.6455L147.042 74.6853L145.186 74.1458L144.906 75.1061L146.762 75.6455ZM143.051 74.5666L143.33 73.6064L141.474 73.0669L141.195 74.0272L143.051 74.5666ZM139.339 73.4877L139.618 72.5275L137.762 71.988L137.483 72.9483L139.339 73.4877ZM135.508 69.3553L136.469 69.6344L137.008 67.7785L136.048 67.4994L135.508 69.3553ZM136.587 65.6435L137.547 65.9226L138.087 64.0667L137.127 63.7876L136.587 65.6435ZM137.666 61.9317L138.626 62.2108L139.166 60.3549L138.205 60.0758L137.666 61.9317ZM141.799 58.1011L141.519 59.0614L143.375 59.6008L143.654 58.6406L141.799 58.1011ZM145.51 59.18L145.231 60.1403L147.087 60.6797L147.366 59.7195L145.51 59.18ZM149.222 60.2589L148.943 61.2192L150.799 61.7586L151.078 60.7984L149.222 60.2589Z" fill="#666666"/>
</svg>
