<svg width="300" height="150" viewBox="0 0 300 150" fill="none" xmlns="http://www.w3.org/2000/svg">
<path fill-rule="evenodd" clip-rule="evenodd" d="M273.511 79.6597L270.568 79.0775C270.892 77.4377 271.062 75.7403 271.062 74C271.062 72.2597 270.892 70.5623 270.568 68.9225L273.511 68.3403C273.873 70.1708 274.062 72.0632 274.062 74C274.062 75.9368 273.873 77.8292 273.511 79.6597ZM269.178 57.8871L266.685 59.5561C264.786 56.7195 262.343 54.2766 259.506 52.3775L261.175 49.8846C264.338 52.0018 267.061 54.7247 269.178 57.8871ZM250.722 45.552L250.14 48.495C248.5 48.1706 246.803 48 245.062 48C243.322 48 241.625 48.1706 239.985 48.495L239.403 45.552C241.233 45.1899 243.126 45 245.062 45C246.999 45 248.892 45.1899 250.722 45.552ZM228.95 49.8846L230.619 52.3775C227.782 54.2766 225.339 56.7195 223.44 59.5561L220.947 57.8871C223.064 54.7247 225.787 52.0018 228.95 49.8846ZM216.614 68.3403C216.252 70.1708 216.062 72.0632 216.062 74C216.062 75.9368 216.252 77.8292 216.614 79.6597L219.557 79.0775C219.233 77.4377 219.062 75.7403 219.062 74C219.062 72.2597 219.233 70.5623 219.557 68.9225L216.614 68.3403ZM220.947 90.1129L223.44 88.4439C225.339 91.2805 227.782 93.7234 230.619 95.6225L228.95 98.1154C225.787 95.9982 223.064 93.2753 220.947 90.1129ZM239.403 102.448L239.985 99.505C241.625 99.8294 243.322 100 245.062 100C246.803 100 248.5 99.8294 250.14 99.5051L250.722 102.448C248.892 102.81 246.999 103 245.062 103C243.126 103 241.233 102.81 239.403 102.448ZM261.175 98.1154L259.506 95.6225C262.343 93.7234 264.786 91.2805 266.685 88.4439L269.178 90.1129C267.061 93.2753 264.338 95.9982 261.175 98.1154Z" fill="#666666"/>
<path fill-rule="evenodd" clip-rule="evenodd" d="M168.59 48H163.562V45H168.59V48ZM188.699 48H178.645V45H188.699V48ZM208.809 48H198.754V45H208.809V48ZM228.918 48H218.863V45H228.918V48ZM244 48H238.973V45H244V48ZM126.087 49H122.062V46H126.087V49ZM142.184 49H134.135V46H142.184V49ZM154.257 49H150.233V46H154.257V49ZM148.115 74H143.505V71H148.115V74ZM166.554 74H157.335V71H166.554V74ZM184.993 74H175.773V71H184.993V74ZM203.432 74H194.212V71H203.432V74ZM217.261 74H212.651V71H217.261V74ZM154.257 102.5H149.717V99.5H154.257V102.5ZM167.878 102.5H163.338V99.5H167.878V102.5ZM179.372 103V100H184.829V103H179.372ZM195.779 103V100H206.717V103H195.779ZM217.659 103V100H228.604V103H217.659ZM239.552 103V100H245V103H239.552Z" fill="#666666"/>
<path fill-rule="evenodd" clip-rule="evenodd" d="M64.3727 29.7334C52.6668 31.4887 41.3112 33.4749 37.9432 34.4418C31.16 36.3891 27.5627 39.704 27.5627 44.3104H26.0627C27.5627 44.3104 27.5627 44.31 27.5627 44.3104V45.8452C27.66 46.4511 27.8957 47.2329 28.4341 48.0833C29.692 50.07 32.8174 52.7473 40.659 54.1439C56.821 57.0224 83.3087 61.5202 93.7263 63.1387C99.273 64.0005 102.538 66.2757 104.375 68.9314C106.18 71.5403 106.463 74.3099 106.463 75.9313V111.276C106.463 114.407 105.361 118.157 103.219 121.03C101.046 123.946 97.686 126.077 93.296 125.487C85.8716 124.488 46.2421 118.48 37.2028 116.464C32.4878 115.412 29.272 113.506 27.2536 110.935C25.2369 108.365 24.5627 105.319 24.5627 102.276V46.0571C24.5522 45.9752 24.5433 45.8951 24.5358 45.817C24.486 45.302 24.4955 44.8731 24.5201 44.5608C24.5324 44.4044 24.5485 44.2764 24.563 44.1806C24.5631 44.1798 24.5632 44.1791 24.5634 44.1783C24.6339 37.5539 30.0121 33.5974 37.1154 31.5582C40.7143 30.5251 52.292 28.5113 63.9278 26.7666C75.5574 25.0228 87.5589 23.5 91.996 23.5C96.5749 23.5 100.199 24.7929 102.699 27.0062C105.207 29.2271 106.463 32.271 106.463 35.5V57.5C106.463 58.3284 105.791 59 104.963 59C104.134 59 103.463 58.3284 103.463 57.5V35.5C103.463 33.0739 102.535 30.8677 100.71 29.2524C98.8768 27.6295 96.0171 26.5 91.996 26.5C87.8331 26.5 76.0847 27.9772 64.3727 29.7334ZM27.5627 51.7129V102.276C27.5627 104.887 28.1384 107.203 29.6134 109.082C31.0866 110.959 33.6042 112.588 37.8559 113.536C46.7499 115.52 86.2537 121.512 93.696 122.513C96.7393 122.923 99.1132 121.519 100.814 119.237C102.547 116.912 103.463 113.799 103.463 111.276V75.9313C103.463 74.6214 103.228 72.5463 101.908 70.6382C100.62 68.7767 98.1523 66.8624 93.2657 66.1032C82.8166 64.4798 56.3043 59.9776 40.133 57.0975C33.7265 55.9565 29.8569 53.9301 27.5627 51.7129Z" fill="#666666"/>
<path d="M234.281 68.3636H236.86L240.315 76.7955H240.451L243.906 68.3636H246.485V80H244.463V72.0057H244.355L241.139 79.9659H239.627L236.411 71.9886H236.303V80H234.281V68.3636Z" fill="#666666"/>
<path d="M252.497 80.1705C251.625 80.1705 250.877 79.9792 250.252 79.5966C249.631 79.214 249.152 78.6856 248.815 78.0114C248.482 77.3333 248.315 76.553 248.315 75.6705C248.315 74.7841 248.485 74.0019 248.826 73.3239C249.167 72.6421 249.648 72.1118 250.269 71.733C250.894 71.3504 251.633 71.1591 252.485 71.1591C253.194 71.1591 253.821 71.2898 254.366 71.5511C254.915 71.8087 255.353 72.1743 255.678 72.6477C256.004 73.1174 256.19 73.6667 256.235 74.2955H254.269C254.19 73.875 254 73.5246 253.701 73.2443C253.406 72.9602 253.01 72.8182 252.514 72.8182C252.093 72.8182 251.724 72.9318 251.406 73.1591C251.088 73.3826 250.839 73.7046 250.661 74.125C250.487 74.5455 250.4 75.0493 250.4 75.6364C250.4 76.2311 250.487 76.7424 250.661 77.1705C250.836 77.5947 251.08 77.9224 251.394 78.1534C251.713 78.3807 252.086 78.4943 252.514 78.4943C252.817 78.4943 253.088 78.4375 253.326 78.3239C253.569 78.2065 253.771 78.0379 253.934 77.8182C254.097 77.5985 254.209 77.3314 254.269 77.0171H256.235C256.186 77.6345 256.004 78.1818 255.69 78.6591C255.375 79.1326 254.947 79.5038 254.406 79.7727C253.864 80.0379 253.228 80.1705 252.497 80.1705Z" fill="#666666"/>
</svg>
